<svg width="24" height="24" viewBox="0 0 24 24" fill="none" xmlns="http://www.w3.org/2000/svg">
<path fill-rule="evenodd" clip-rule="evenodd" d="M16.3257 14.899L21.7057 20.279C21.8948 20.4682 22.001 20.7248 22.0009 20.9923C22.0008 21.2599 21.8945 21.5164 21.7052 21.7055C21.516 21.8946 21.2594 22.0008 20.9919 22.0007C20.7244 22.0006 20.4678 21.8942 20.2787 21.705L14.8987 16.325C13.2905 17.5707 11.268 18.1569 9.24287 17.9643C7.21772 17.7718 5.34198 16.815 3.99723 15.2886C2.65248 13.7622 1.93973 11.7808 2.004 9.74753C2.06826 7.71427 2.9047 5.78185 4.34315 4.34339C5.7816 2.90494 7.71402 2.0685 9.74729 2.00424C11.7806 1.93998 13.7619 2.65272 15.2884 3.99747C16.8148 5.34222 17.7716 7.21796 17.9641 9.24312C18.1566 11.2683 17.5704 13.2907 16.3247 14.899H16.3257ZM10.0007 16C11.592 16 13.1182 15.3678 14.2434 14.2426C15.3686 13.1174 16.0007 11.5913 16.0007 9.99999C16.0007 8.40869 15.3686 6.88257 14.2434 5.75735C13.1182 4.63213 11.592 3.99999 10.0007 3.99999C8.40944 3.99999 6.88332 4.63213 5.7581 5.75735C4.63289 6.88257 4.00074 8.40869 4.00074 9.99999C4.00074 11.5913 4.63289 13.1174 5.7581 14.2426C6.88332 15.3678 8.40944 16 10.0007 16Z" fill="white"/>
</svg>
