<svg width="104" height="26" viewBox="0 0 104 26" fill="none" xmlns="http://www.w3.org/2000/svg">
<path d="M0.45 25H19.07V19.505H7.38V0.499998H0.45V25ZM33.7913 25.49C41.6313 25.49 47.4063 20.1 47.4063 12.75C47.4063 5.4 41.6313 0.00999838 33.7913 0.00999838C25.9513 0.00999838 20.1763 5.4 20.1763 12.75C20.1763 20.1 25.9513 25.49 33.7913 25.49ZM33.7913 19.75C30.0813 19.75 27.1763 16.985 27.1763 12.75C27.1763 8.515 30.0813 5.75 33.7913 5.75C37.5013 5.75 40.4063 8.515 40.4063 12.75C40.4063 16.985 37.5013 19.75 33.7913 19.75ZM67.4509 18.945C66.2259 19.505 65.0009 19.75 63.7059 19.75C59.5759 19.75 56.7759 16.88 56.7759 12.75C56.7759 8.515 59.5759 5.75 63.7759 5.75C66.1209 5.75 68.0459 6.625 69.7259 8.48L74.1359 4.49C71.7209 1.585 68.0109 0.00999838 63.4259 0.00999838C55.4809 0.00999838 49.7759 5.295 49.7759 12.75C49.7759 20.205 55.4809 25.49 63.2859 25.49C66.8559 25.49 70.7409 24.405 73.5759 22.375V12.225H67.4509V18.945ZM90.3245 25.49C98.1645 25.49 103.94 20.1 103.94 12.75C103.94 5.4 98.1645 0.00999838 90.3245 0.00999838C82.4845 0.00999838 76.7095 5.4 76.7095 12.75C76.7095 20.1 82.4845 25.49 90.3245 25.49ZM90.3245 19.75C86.6145 19.75 83.7095 16.985 83.7095 12.75C83.7095 8.515 86.6145 5.75 90.3245 5.75C94.0345 5.75 96.9395 8.515 96.9395 12.75C96.9395 16.985 94.0345 19.75 90.3245 19.75Z" fill="#484848"/>
</svg>
