<svg width="28" height="28" viewBox="0 0 28 28" fill="none" xmlns="http://www.w3.org/2000/svg">
<path d="M5.96412 25.86L24.439 15.5141C24.7104 15.3621 24.9364 15.1405 25.0937 14.8721C25.2511 14.6037 25.334 14.2982 25.334 13.9871C25.334 13.676 25.2511 13.3705 25.0937 13.1021C24.9364 12.8337 24.7104 12.6121 24.439 12.4601L5.96412 2.1141C5.65326 1.93999 5.29667 1.86492 4.942 1.89891C4.58733 1.93291 4.25149 2.07435 3.97936 2.30434C3.70724 2.53433 3.51179 2.8419 3.41916 3.18594C3.32652 3.52998 3.34111 3.8941 3.46096 4.22963L6.94565 13.987L3.46096 23.7445C3.39237 23.9356 3.35718 24.1371 3.35695 24.3401C3.35868 24.6447 3.43981 24.9437 3.59234 25.2074C3.74487 25.4712 3.96353 25.6906 4.22673 25.844C4.48994 25.9975 4.7886 26.0796 5.09326 26.0824C5.39791 26.0852 5.69804 26.0085 5.96401 25.86L5.96412 25.86ZM8.49156 14.8621L14.8749 14.8621C15.107 14.8621 15.3295 14.7699 15.4936 14.6058C15.6577 14.4417 15.7499 14.2191 15.7499 13.9871C15.7499 13.755 15.6577 13.5325 15.4936 13.3684C15.3295 13.2043 15.107 13.1121 14.8749 13.1121L8.49156 13.1121L5.1099 3.64152L23.5841 13.9871L5.10935 24.3322L8.49156 14.8621Z" fill="white"/>
</svg>
