<svg>
  <symbol id="facebook" xmlns="http://www.w3.org/2000/svg">
    <g>
      <path
        d="M21.4286 0H2.57143C1.88944 0 1.23539 0.270918 0.753154 0.753154C0.270918 1.23539 0 1.88944 0 2.57143L0 21.4286C0 22.1106 0.270918 22.7646 0.753154 23.2468C1.23539 23.7291 1.88944 24 2.57143 24H9.92411V15.8405H6.54911V12H9.92411V9.07286C9.92411 5.74339 11.9063 3.90429 14.9421 3.90429C16.3961 3.90429 17.9164 4.16357 17.9164 4.16357V7.43143H16.2413C14.5907 7.43143 14.0759 8.45571 14.0759 9.50625V12H17.7605L17.1713 15.8405H14.0759V24H21.4286C22.1106 24 22.7646 23.7291 23.2468 23.2468C23.7291 22.7646 24 22.1106 24 21.4286V2.57143C24 1.88944 23.7291 1.23539 23.2468 0.753154C22.7646 0.270918 22.1106 0 21.4286 0Z"
      />
    </g>
  </symbol>
  <symbol id="twitter" xmlns="http://www.w3.org/2000/svg">
    <g>
      <path
        d="M27 2.6096C26.0071 3.05059 24.9405 3.34856 23.8191 3.48324C24.9761 2.78933 25.8417 1.69719 26.2544 0.410618C25.1674 1.05779 23.9777 1.51332 22.737 1.75742C21.9027 0.864556 20.7977 0.272751 19.5934 0.0738863C18.3891 -0.124978 17.1531 0.080224 16.0771 0.657635C15.0011 1.23505 14.1454 2.15236 13.6429 3.26716C13.1403 4.38195 13.019 5.63186 13.2979 6.82283C11.0952 6.71198 8.9405 6.13817 6.97346 5.13862C5.00643 4.13907 3.27106 2.73613 1.87999 1.02085C1.40434 1.84324 1.13085 2.79672 1.13085 3.81219C1.13032 4.72634 1.35491 5.62649 1.78471 6.43277C2.21451 7.23906 2.83623 7.92654 3.59469 8.43423C2.71507 8.40617 1.85487 8.16795 1.08566 7.73937V7.81088C1.08557 9.09302 1.52805 10.3357 2.33801 11.3281C3.14798 12.3204 4.27554 13.0014 5.52938 13.2553C4.71339 13.4767 3.85788 13.5093 3.02748 13.3507C3.38124 14.4539 4.07033 15.4186 4.99828 16.1097C5.92623 16.8009 7.04659 17.1839 8.2025 17.2051C6.24027 18.7491 3.81692 19.5866 1.32229 19.5829C0.880397 19.583 0.438873 19.5571 0 19.5054C2.53219 21.1373 5.47984 22.0034 8.49027 22C18.681 22 24.252 13.5402 24.252 6.20306C24.252 5.96469 24.246 5.72393 24.2353 5.48556C25.3189 4.7001 26.2543 3.72744 26.9976 2.61318L27 2.6096Z"
      />
    </g>
  </symbol>
  <symbol id="instagram" xmlns="http://www.w3.org/2000/svg">
    <g>
      <path
        d="M12 0C8.73784 0 8.33129 0.015752 7.05463 0.0697587C5.77272 0.132767 4.90561 0.331541 4.14052 0.628579C3.33976 0.930882 2.61457 1.40419 2.0155 2.0155C1.40248 2.61317 0.928914 3.33877 0.628579 4.14052C0.331541 4.90561 0.132767 5.77272 0.0697587 7.05463C0.0120015 8.33204 0 8.73784 0 12C0 15.2622 0.015752 15.6687 0.0697587 16.9454C0.132767 18.2235 0.331541 19.0944 0.628579 19.8595C0.930882 20.6602 1.40419 21.3854 2.0155 21.9845C2.61317 22.5975 3.33877 23.0711 4.14052 23.3714C4.90561 23.6647 5.77647 23.8672 7.05463 23.9302C8.33204 23.988 8.73784 24 12 24C15.2622 24 15.6687 23.9842 16.9454 23.9302C18.2235 23.8672 19.0944 23.664 19.8595 23.3714C20.6602 23.0691 21.3854 22.5958 21.9845 21.9845C22.5983 21.3875 23.072 20.6617 23.3714 19.8595C23.6647 19.0944 23.8672 18.2235 23.9302 16.9454C23.988 15.668 24 15.2622 24 12C24 8.73784 23.9842 8.33129 23.9302 7.05463C23.8672 5.77647 23.664 4.90111 23.3714 4.14052C23.0691 3.33976 22.5958 2.61457 21.9845 2.0155C21.3875 1.40169 20.6617 0.928001 19.8595 0.628579C19.0944 0.331541 18.2235 0.132767 16.9454 0.0697587C15.668 0.0120015 15.2622 0 12 0ZM12 2.16027C15.2037 2.16027 15.5862 2.17602 16.8524 2.23003C18.0203 2.28479 18.6563 2.47981 19.0786 2.64483C19.6007 2.83755 20.0732 3.14428 20.4618 3.54269C20.8595 3.92961 21.1651 4.40106 21.3559 4.92212C21.5209 5.34442 21.716 5.9805 21.7707 7.14839C21.8247 8.41455 21.8405 8.79785 21.8405 12.0007C21.8405 15.2037 21.8247 15.5869 21.7662 16.8531C21.7032 18.021 21.5082 18.6571 21.3439 19.0794C21.1166 19.6427 20.8631 20.0365 20.4446 20.4626C20.0547 20.8585 19.5825 21.1637 19.0614 21.3567C18.6443 21.5217 17.9993 21.7167 16.8269 21.7715C15.5539 21.8255 15.1789 21.8412 11.967 21.8412C8.7551 21.8412 8.3808 21.8255 7.10639 21.767C5.93849 21.704 5.29416 21.5089 4.87186 21.3447C4.30179 21.1174 3.91099 20.8639 3.49244 20.4453C3.07013 20.023 2.8016 19.621 2.59457 19.0621C2.42655 18.6451 2.23453 18 2.17227 16.8276C2.12952 15.5697 2.10926 15.1796 2.10926 11.9827C2.10926 8.78735 2.12952 8.39655 2.17227 7.12289C2.23453 5.95049 2.42655 5.30691 2.59457 4.88836C2.8016 4.31754 3.07088 3.92749 3.49244 3.50519C3.91024 3.08739 4.30179 2.81735 4.87186 2.60583C5.29416 2.44156 5.92274 2.24653 7.09514 2.18802C8.36805 2.14227 8.74309 2.12577 11.9505 2.12577L12 2.16027ZM12 5.84098C11.1909 5.84068 10.3897 5.99983 9.64212 6.30932C8.89456 6.61881 8.21531 7.07258 7.6432 7.6447C7.07108 8.21681 6.61731 8.89606 6.30782 9.64362C5.99833 10.3912 5.83918 11.1924 5.83948 12.0015C5.83918 12.8106 5.99833 13.6118 6.30782 14.3594C6.61731 15.1069 7.07108 15.7862 7.6432 16.3583C8.21531 16.9304 8.89456 17.3842 9.64212 17.6937C10.3897 18.0032 11.1909 18.1623 12 18.162C12.8091 18.1623 13.6103 18.0032 14.3579 17.6937C15.1054 17.3842 15.7847 16.9304 16.3568 16.3583C16.9289 15.7862 17.3827 15.1069 17.6922 14.3594C18.0017 13.6118 18.1608 12.8106 18.1605 12.0015C18.1608 11.1924 18.0017 10.3912 17.6922 9.64362C17.3827 8.89606 16.9289 8.21681 16.3568 7.6447C15.7847 7.07258 15.1054 6.61881 14.3579 6.30932C13.6103 5.99983 12.8091 5.84068 12 5.84098ZM12 16.0018C9.78872 16.0018 7.99975 14.2128 7.99975 12.0015C7.99975 9.79022 9.78872 8.00125 12 8.00125C14.2113 8.00125 16.0002 9.79022 16.0002 12.0015C16.0002 14.2128 14.2113 16.0018 12 16.0018ZM19.849 5.59495C19.8486 5.97725 19.6964 6.34375 19.426 6.61393C19.1555 6.88412 18.7888 7.03588 18.4066 7.03588C18.2175 7.03588 18.0303 6.99865 17.8557 6.92631C17.6811 6.85397 17.5224 6.74794 17.3887 6.61428C17.2551 6.48062 17.149 6.32194 17.0767 6.1473C17.0044 5.97266 16.9671 5.78548 16.9671 5.59645C16.9671 5.40742 17.0044 5.22024 17.0767 5.0456C17.149 4.87096 17.2551 4.71228 17.3887 4.57862C17.5224 4.44496 17.6811 4.33893 17.8557 4.26659C18.0303 4.19425 18.2175 4.15702 18.4066 4.15702C19.1994 4.15702 19.849 4.8021 19.849 5.59495Z"
      />
    </g>
  </symbol>
  <symbol id="linkedin" xmlns="http://www.w3.org/2000/svg">
    <g>
      <path fill-rule="evenodd" clip-rule="evenodd"
        d="M2.96792e-07 2.00509C2.96792e-07 1.47331 0.21125 0.963308 0.587278 0.58728C0.963305 0.211253 1.47331 2.67307e-06 2.00509 2.67307e-06H21.9927C22.2563 -0.000427747 22.5173 0.0511258 22.7609 0.151712C23.0045 0.252298 23.2258 0.399941 23.4123 0.586188C23.5987 0.772435 23.7466 0.993628 23.8475 1.2371C23.9483 1.48058 24.0001 1.74156 24 2.00509V21.9927C24.0003 22.2563 23.9486 22.5174 23.8479 22.761C23.7472 23.0046 23.5994 23.2259 23.4131 23.4123C23.2268 23.5988 23.0055 23.7466 22.762 23.8475C22.5184 23.9483 22.2574 24.0001 21.9938 24H2.00509C1.74169 24 1.48086 23.9481 1.23752 23.8473C0.994184 23.7464 0.773096 23.5986 0.586892 23.4123C0.400688 23.226 0.253017 23.0049 0.152316 22.7615C0.0516145 22.5181 -0.000143013 22.2572 2.96792e-07 21.9938V2.00509ZM9.49964 9.15055H12.7495V10.7825C13.2185 9.84437 14.4185 9 16.2218 9C19.6789 9 20.4982 10.8687 20.4982 14.2975V20.6487H16.9996V15.0785C16.9996 13.1258 16.5305 12.024 15.3393 12.024C13.6865 12.024 12.9993 13.212 12.9993 15.0785V20.6487H9.49964V9.15055ZM3.49964 20.4993H6.99927V9H3.49964V20.4982V20.4993ZM7.5 5.24946C7.5066 5.5491 7.45328 5.84704 7.34317 6.1258C7.23306 6.40456 7.06838 6.65851 6.8588 6.87276C6.64921 7.08702 6.39894 7.25725 6.12268 7.37346C5.84641 7.48968 5.54972 7.54955 5.25 7.54955C4.95028 7.54955 4.65359 7.48968 4.37732 7.37346C4.10106 7.25725 3.85079 7.08702 3.6412 6.87276C3.43162 6.65851 3.26694 6.40456 3.15683 6.1258C3.04672 5.84704 2.9934 5.5491 3 5.24946C3.01295 4.6613 3.25569 4.10159 3.67624 3.69021C4.09678 3.27882 4.6617 3.04846 5.25 3.04846C5.8383 3.04846 6.40322 3.27882 6.82376 3.69021C7.24431 4.10159 7.48705 4.6613 7.5 5.24946Z"
      />
    </g>
  </symbol>
  <symbol id="footer-logo" xmlns="http://www.w3.org/2000/svg">
    <g>
      <path
        d="M0.5 36H27.1V28.15H10.4V0.999998H0.5V36ZM48.1305 36.7C59.3305 36.7 67.5805 29 67.5805 18.5C67.5805 8 59.3305 0.299998 48.1305 0.299998C36.9305 0.299998 28.6805 8 28.6805 18.5C28.6805 29 36.9305 36.7 48.1305 36.7ZM48.1305 28.5C42.8305 28.5 38.6805 24.55 38.6805 18.5C38.6805 12.45 42.8305 8.5 48.1305 8.5C53.4305 8.5 57.5805 12.45 57.5805 18.5C57.5805 24.55 53.4305 28.5 48.1305 28.5ZM96.2156 27.35C94.4656 28.15 92.7156 28.5 90.8656 28.5C84.9656 28.5 80.9656 24.4 80.9656 18.5C80.9656 12.45 84.9656 8.5 90.9656 8.5C94.3156 8.5 97.0656 9.75 99.4656 12.4L105.766 6.7C102.316 2.55 97.0156 0.299998 90.4656 0.299998C79.1156 0.299998 70.9656 7.85 70.9656 18.5C70.9656 29.15 79.1156 36.7 90.2656 36.7C95.3656 36.7 100.916 35.15 104.966 32.25V17.75H96.2156V27.35ZM128.892 36.7C140.092 36.7 148.342 29 148.342 18.5C148.342 8 140.092 0.299998 128.892 0.299998C117.692 0.299998 109.442 8 109.442 18.5C109.442 29 117.692 36.7 128.892 36.7ZM128.892 28.5C123.592 28.5 119.442 24.55 119.442 18.5C119.442 12.45 123.592 8.5 128.892 8.5C134.192 8.5 138.342 12.45 138.342 18.5C138.342 24.55 134.192 28.5 128.892 28.5Z"
      />
    </g>
  </symbol>
  <symbol id="header-logo" xmlns="http://www.w3.org/2000/svg">
    <g>
      <path
        d="M0.45 25H19.07V19.505H7.38V0.499998H0.45V25ZM33.7913 25.49C41.6313 25.49 47.4063 20.1 47.4063 12.75C47.4063 5.4 41.6313 0.00999838 33.7913 0.00999838C25.9513 0.00999838 20.1763 5.4 20.1763 12.75C20.1763 20.1 25.9513 25.49 33.7913 25.49ZM33.7913 19.75C30.0813 19.75 27.1763 16.985 27.1763 12.75C27.1763 8.515 30.0813 5.75 33.7913 5.75C37.5013 5.75 40.4063 8.515 40.4063 12.75C40.4063 16.985 37.5013 19.75 33.7913 19.75ZM67.4509 18.945C66.2259 19.505 65.0009 19.75 63.7059 19.75C59.5759 19.75 56.7759 16.88 56.7759 12.75C56.7759 8.515 59.5759 5.75 63.7759 5.75C66.1209 5.75 68.0459 6.625 69.7259 8.48L74.1359 4.49C71.7209 1.585 68.0109 0.00999838 63.4259 0.00999838C55.4809 0.00999838 49.7759 5.295 49.7759 12.75C49.7759 20.205 55.4809 25.49 63.2859 25.49C66.8559 25.49 70.7409 24.405 73.5759 22.375V12.225H67.4509V18.945ZM90.3245 25.49C98.1645 25.49 103.94 20.1 103.94 12.75C103.94 5.4 98.1645 0.00999838 90.3245 0.00999838C82.4845 0.00999838 76.7095 5.4 76.7095 12.75C76.7095 20.1 82.4845 25.49 90.3245 25.49ZM90.3245 19.75C86.6145 19.75 83.7095 16.985 83.7095 12.75C83.7095 8.515 86.6145 5.75 90.3245 5.75C94.0345 5.75 96.9395 8.515 96.9395 12.75C96.9395 16.985 94.0345 19.75 90.3245 19.75Z"
      />
    </g>
  </symbol>
  <symbol id="subscription" xmlns="http://www.w3.org/2000/svg">
    <g>
      <path
        d="M2.96412 24.86L21.439 14.5141C21.7104 14.3621 21.9364 14.1405 22.0937 13.8721C22.2511 13.6037 22.334 13.2982 22.334 12.9871C22.334 12.676 22.2511 12.3705 22.0937 12.1021C21.9364 11.8337 21.7104 11.6121 21.439 11.4601L2.96412 1.1141C2.65326 0.939991 2.29667 0.864919 1.942 0.898915C1.58733 0.932911 1.25149 1.07435 0.979361 1.30434C0.707235 1.53433 0.511792 1.8419 0.419157 2.18594C0.326522 2.52998 0.341107 2.8941 0.460964 3.22963L3.94565 12.987L0.460963 22.7445C0.392369 22.9356 0.357182 23.1371 0.356946 23.3401C0.35868 23.6447 0.439814 23.9437 0.592343 24.2074C0.744872 24.4712 0.963527 24.6906 1.22673 24.844C1.48994 24.9975 1.7886 25.0796 2.09326 25.0824C2.39791 25.0852 2.69814 25.0085 2.96412 24.86ZM5.49156 13.8621L11.8749 13.8621C12.107 13.8621 12.3295 13.7699 12.4936 13.6058C12.6577 13.4417 12.7499 13.2191 12.7499 12.9871C12.7499 12.755 12.6577 12.5325 12.4936 12.3684C12.3295 12.2043 12.107 12.1121 11.8749 12.1121L5.49156 12.1121L2.1099 2.64152L20.5841 12.9871L2.10935 23.3322L5.49156 13.8621Z"
        fill="white"
      />
    </g>
  </symbol>
  <symbol id="like" xmlns="http://www.w3.org/2000/svg">
    <g>
      <path
        d="M26.1141 4.01478C25.4757 3.37604 24.7176 2.86934 23.8833 2.52364C23.049 2.17793 22.1547 2 21.2516 2C20.3485 2 19.4542 2.17793 18.6199 2.52364C17.7856 2.86934 17.0276 3.37604 16.3891 4.01478L15.0641 5.33978L13.7391 4.01478C12.4495 2.72517 10.7004 2.00067 8.87661 2.00067C7.05282 2.00067 5.30373 2.72517 4.01411 4.01478C2.7245 5.3044 2 7.05349 2 8.87728C2 10.7011 2.7245 12.4502 4.01411 13.7398L5.33911 15.0648L15.0641 24.7898L24.7891 15.0648L26.1141 13.7398C26.7529 13.1013 27.2596 12.3433 27.6053 11.509C27.951 10.6747 28.1289 9.78039 28.1289 8.87728C28.1289 7.97417 27.951 7.07991 27.6053 6.24559C27.2596 5.41126 26.7529 4.65323 26.1141 4.01478V4.01478Z"
        stroke="#9A9A9A"
        stroke-width="2.5"
        stroke-linecap="round"
        stroke-linejoin="round"
      />
    </g>
  </symbol>
  <symbol id="bath" xmlns="http://www.w3.org/2000/svg">
    <g>
      <path
        d="M18.2513 7H4.83464V4C4.83464 2.897 5.69426 2 6.7513 2C7.80834 2 8.66797 2.897 8.66797 4H10.5846C10.5846 1.794 8.86539 0 6.7513 0C4.63722 0 2.91797 1.794 2.91797 4V7H1.0013C0.747136 7 0.50338 7.10536 0.323658 7.29289C0.143936 7.48043 0.0429688 7.73478 0.0429688 8V10C0.0429688 12.606 1.64722 14.823 3.8763 15.65V19H5.79297V16H13.4596V19H15.3763V15.65C17.6054 14.823 19.2096 12.606 19.2096 10V8C19.2096 7.73478 19.1087 7.48043 18.9289 7.29289C18.7492 7.10536 18.5055 7 18.2513 7ZM17.293 10C17.293 12.206 15.5737 14 13.4596 14H5.79297C3.67889 14 1.95964 12.206 1.95964 10V9H17.293V10Z"
        fill="#484848"
      />
    </g>
  </symbol>
  <symbol id="bed" xmlns="http://www.w3.org/2000/svg">
    <g>
      <path
        d="M3.30078 2.725C3.30078 2.2675 3.48252 1.82874 3.80602 1.50524C4.12952 1.18174 4.56828 1 5.02578 1H19.9758C20.4333 1 20.872 1.18174 21.1955 1.50524C21.519 1.82874 21.7008 2.2675 21.7008 2.725V9.05H3.30078V2.725Z"
        stroke="#484848"
        stroke-width="2"
        stroke-linecap="round"
        stroke-linejoin="round"
      />
      <path
        d="M2.15039 15.9501V18.2501"
        stroke="#484848"
        stroke-width="2"
        stroke-linecap="round"
        stroke-linejoin="round"
      />
      <path
        d="M22.8496 15.9501V18.2501"
        stroke="#484848"
        stroke-width="2"
        stroke-linecap="round"
        stroke-linejoin="round"
      />
      <path
        d="M15.3754 6.17493H9.62539C9.16789 6.17493 8.72913 6.35667 8.40563 6.68017C8.08213 7.00367 7.90039 7.44243 7.90039 7.89993V9.04993H17.1004V7.89993C17.1004 7.44243 16.9187 7.00367 16.5952 6.68017C16.2717 6.35667 15.8329 6.17493 15.3754 6.17493Z"
        stroke="#484848"
        stroke-width="2"
        stroke-linecap="round"
        stroke-linejoin="round"
      />
      <path
        d="M1 10.7749C1 10.3174 1.18174 9.87867 1.50524 9.55517C1.82874 9.23167 2.2675 9.04993 2.725 9.04993H22.275C22.7325 9.04993 23.1713 9.23167 23.4948 9.55517C23.8183 9.87867 24 10.3174 24 10.7749V15.9499H1V10.7749Z"
        stroke="#484848"
        stroke-width="2"
        stroke-linecap="round"
        stroke-linejoin="round"
      />
    </g>
  </symbol>
  <symbol id="search" xmlns="http://www.w3.org/2000/svg">
    <g>
      <path
        fill-rule="evenodd"
        clip-rule="evenodd"
        d="M14.3257 12.899L19.7057 18.279C19.8948 18.4682 20.001 18.7248 20.0009 18.9923C20.0008 19.2599 19.8945 19.5164 19.7052 19.7055C19.516 19.8946 19.2594 20.0008 18.9919 20.0007C18.7244 20.0006 18.4678 19.8942 18.2787 19.705L12.8987 14.325C11.2905 15.5707 9.26802 16.1569 7.24287 15.9643C5.21772 15.7718 3.34198 14.815 1.99723 13.2886C0.652477 11.7622 -0.0602651 9.7808 0.00399633 7.74753C0.0682577 5.71427 0.904695 3.78185 2.34315 2.34339C3.7816 0.904939 5.71402 0.0685019 7.74729 0.00424047C9.78056 -0.0600209 11.7619 0.652721 13.2884 1.99747C14.8148 3.34222 15.7716 5.21796 15.9641 7.24312C16.1566 9.26827 15.5704 11.2907 14.3247 12.899H14.3257ZM8.00074 14C9.59204 14 11.1182 13.3678 12.2434 12.2426C13.3686 11.1174 14.0007 9.59129 14.0007 7.99999C14.0007 6.40869 13.3686 4.88257 12.2434 3.75735C11.1182 2.63213 9.59204 1.99999 8.00074 1.99999C6.40944 1.99999 4.88332 2.63213 3.7581 3.75735C2.63289 4.88257 2.00074 6.40869 2.00074 7.99999C2.00074 9.59129 2.63289 11.1174 3.7581 12.2426C4.88332 13.3678 6.40944 14 8.00074 14Z"
        fill="white"
      />
    </g>
  </symbol>
  <symbol id="big-like" xmlns="http://www.w3.org/2000/svg">
    <g>
      <path
        d="M31.6271 4.4754C30.8427 3.69063 29.9114 3.06809 28.8863 2.64335C27.8612 2.21861 26.7625 2 25.6529 2C24.5434 2 23.4446 2.21861 22.4196 2.64335C21.3945 3.06809 20.4632 3.69063 19.6788 4.4754L18.0508 6.10333L16.4229 4.4754C14.8385 2.89096 12.6895 2.00082 10.4488 2.00082C8.208 2.00082 6.05903 2.89096 4.47458 4.4754C2.89013 6.05985 2 8.20882 2 10.4496C2 12.6903 2.89013 14.8393 4.47458 16.4237L6.1025 18.0517L18.0508 30L29.9992 18.0517L31.6271 16.4237C32.4119 15.6393 33.0344 14.708 33.4592 13.6829C33.8839 12.6579 34.1025 11.5592 34.1025 10.4496C34.1025 9.33999 33.8839 8.24129 33.4592 7.21622C33.0344 6.19115 32.4119 5.25981 31.6271 4.4754V4.4754Z"
        stroke="#484848"
        stroke-width="3"
        stroke-linecap="round"
        stroke-linejoin="round"
      />
    </g>
  </symbol>
  <symbol id="share" xmlns="http://www.w3.org/2000/svg">
    <g>
      <path
        d="M25.3327 11.3333C27.91 11.3333 29.9993 9.244 29.9993 6.66667C29.9993 4.08934 27.91 2 25.3327 2C22.7554 2 20.666 4.08934 20.666 6.66667C20.666 9.244 22.7554 11.3333 25.3327 11.3333Z"
        stroke="#484848"
        stroke-width="3"
        stroke-linecap="round"
        stroke-linejoin="round"
      />
      <path
        d="M6.66667 22.2222C9.244 22.2222 11.3333 20.1329 11.3333 17.5556C11.3333 14.9783 9.244 12.8889 6.66667 12.8889C4.08934 12.8889 2 14.9783 2 17.5556C2 20.1329 4.08934 22.2222 6.66667 22.2222Z"
        stroke="#484848"
        stroke-width="3"
        stroke-linecap="round"
        stroke-linejoin="round"
      />
      <path
        d="M25.3327 33.1112C27.91 33.1112 29.9993 31.0218 29.9993 28.4445C29.9993 25.8672 27.91 23.7778 25.3327 23.7778C22.7554 23.7778 20.666 25.8672 20.666 28.4445C20.666 31.0218 22.7554 33.1112 25.3327 33.1112Z"
        stroke="#484848"
        stroke-width="3"
        stroke-linecap="round"
        stroke-linejoin="round"
      />
      <path
        d="M10.6953 19.9043L21.3198 26.0954"
        stroke="#484848"
        stroke-width="3"
        stroke-linecap="round"
        stroke-linejoin="round"
      />
      <path
        d="M21.3042 9.01538L10.6953 15.2065"
        stroke="#484848"
        stroke-width="3"
        stroke-linecap="round"
        stroke-linejoin="round"
      />
    </g>
  </symbol>
  <symbol id="big-bed" xmlns="http://www.w3.org/2000/svg">
    <g fill="none">
      <path
        d="M6.29883 5.225C6.29883 4.36968 6.6386 3.54938 7.24341 2.94458C7.84821 2.33978 8.66851 2 9.52383 2H37.4738C38.3292 2 39.1494 2.33978 39.7543 2.94458C40.3591 3.54938 40.6988 4.36968 40.6988 5.225V17.05H6.29883V5.225Z"
        stroke="#484848"
        stroke-width="3"
        stroke-linecap="round"
        stroke-linejoin="round"
      />
      <path
        d="M4.15039 29.9502V34.2502"
        stroke="#484848"
        stroke-width="3"
        stroke-linecap="round"
        stroke-linejoin="round"
      />
      <path
        d="M42.8496 29.9502V34.2502"
        stroke="#484848"
        stroke-width="3"
        stroke-linecap="round"
        stroke-linejoin="round"
      />
      <path
        d="M28.8754 11.6748H18.1254C17.2701 11.6748 16.4498 12.0146 15.845 12.6194C15.2402 13.2242 14.9004 14.0445 14.9004 14.8998V17.0498H32.1004V14.8998C32.1004 14.0445 31.7606 13.2242 31.1558 12.6194C30.551 12.0146 29.7307 11.6748 28.8754 11.6748Z"
        stroke="#484848"
        stroke-width="3"
        stroke-linecap="round"
        stroke-linejoin="round"
      />
      <path
        d="M2 20.2748C2 19.4195 2.33978 18.5992 2.94458 17.9944C3.54939 17.3896 4.36968 17.0498 5.225 17.0498H41.775C42.6303 17.0498 43.4506 17.3896 44.0554 17.9944C44.6602 18.5992 45 19.4195 45 20.2748V29.9498H2V20.2748Z"
        stroke="#484848"
        stroke-width="3"
        stroke-linecap="round"
        stroke-linejoin="round"
      />
    </g>
  </symbol>
  <symbol id="big-bath" xmlns="http://www.w3.org/2000/svg">
    <g>
      <path
        d="M34.2 13.2632H9V7.57895C9 5.48905 10.6146 3.78947 12.6 3.78947C14.5854 3.78947 16.2 5.48905 16.2 7.57895H19.8C19.8 3.39916 16.5708 0 12.6 0C8.6292 0 5.4 3.39916 5.4 7.57895V13.2632H1.8C1.32261 13.2632 0.864773 13.4628 0.527208 13.8181C0.189642 14.1734 0 14.6554 0 15.1579V18.9474C0 23.8851 3.0132 28.0857 7.2 29.6526V36H10.8V30.3158H25.2V36H28.8V29.6526C32.9868 28.0857 36 23.8851 36 18.9474V15.1579C36 14.6554 35.8104 14.1734 35.4728 13.8181C35.1352 13.4628 34.6774 13.2632 34.2 13.2632ZM32.4 18.9474C32.4 23.1272 29.1708 26.5263 25.2 26.5263H10.8C6.8292 26.5263 3.6 23.1272 3.6 18.9474V17.0526H32.4V18.9474Z"
        fill="#484848"
      />
    </g>
  </symbol>
  <symbol id="star" xmlns="http://www.w3.org/2000/svg">
    <g>
      <path
        d="M19.9471 7.18002C19.8843 6.99491 19.7686 6.83225 19.6143 6.71214C19.4601 6.59202 19.274 6.5197 19.0791 6.50411L13.3781 6.05117L10.9111 0.590889C10.8325 0.415025 10.7047 0.265654 10.5431 0.160804C10.3815 0.0559538 10.193 0.000105865 10.0004 1.50359e-07C9.80777 -0.000105564 9.61922 0.0555355 9.45751 0.160208C9.2958 0.264881 9.16784 0.414111 9.08908 0.589889L6.62206 6.05117L0.921032 6.50411C0.729486 6.51928 0.546368 6.5893 0.393584 6.70581C0.2408 6.82231 0.12482 6.98036 0.0595198 7.16105C-0.00578041 7.34173 -0.017636 7.5374 0.0253714 7.72465C0.0683787 7.91189 0.164428 8.08278 0.302028 8.21688L4.51505 12.3233L3.02504 18.7745C2.9798 18.9698 2.9943 19.1741 3.06666 19.361C3.13903 19.548 3.26591 19.7088 3.43085 19.8228C3.59579 19.9367 3.79117 19.9984 3.99163 20C4.1921 20.0015 4.3884 19.9427 4.55505 19.8313L10.0001 16.2018L15.4451 19.8313C15.6155 19.9444 15.8163 20.0026 16.0208 19.9981C16.2252 19.9937 16.4233 19.9267 16.5885 19.8063C16.7537 19.6858 16.8781 19.5177 16.9449 19.3245C17.0117 19.1313 17.0177 18.9222 16.9621 18.7255L15.1331 12.3263L19.6691 8.24487C19.9661 7.97691 20.0751 7.55897 19.9471 7.18002Z"
        fill="#484848"
      />
    </g>
  </symbol>
  <symbol id="scale" xmlns="http://www.w3.org/2000/svg">
    <g>
      <rect width="135" height="4" rx="2" fill="#9A9A9A" />
    </g>
  </symbol>
</svg>